<svg width="22" height="26" viewBox="0 0 22 26" fill="none" xmlns="http://www.w3.org/2000/svg">
<path d="M14.7125 19.6204H20.9L19.1613 17.76C18.9277 17.5102 18.7424 17.2136 18.6161 16.8871C18.4898 16.5606 18.4248 16.2107 18.425 15.8573V11.6759C18.4256 10.0326 17.9498 8.42946 17.0633 7.0875C16.1767 5.74554 14.9231 4.73075 13.475 4.18297V3.73146C13.475 3.02913 13.2142 2.35556 12.7501 1.85894C12.2859 1.36231 11.6564 1.08331 11 1.08331C10.3436 1.08331 9.71407 1.36231 9.24992 1.85894C8.78576 2.35556 8.52501 3.02913 8.52501 3.73146V4.18297C5.64163 5.27401 3.57501 8.21742 3.57501 11.6759V15.8587C3.57501 16.571 3.31018 17.2556 2.83869 17.76L1.10001 19.6204H7.28751M14.7125 19.6204V20.9444C14.7125 21.9979 14.3214 23.0083 13.6251 23.7532C12.9289 24.4981 11.9846 24.9166 11 24.9166C10.0154 24.9166 9.0711 24.4981 8.37487 23.7532C7.67864 23.0083 7.28751 21.9979 7.28751 20.9444V19.6204M14.7125 19.6204H7.28751" stroke="#0471E9" stroke-width="2" stroke-linecap="round" stroke-linejoin="round"/>
</svg>
