<svg width="36" height="31" viewBox="0 0 36 31" fill="none" xmlns="http://www.w3.org/2000/svg">
<path d="M17.9942 24.3967C18.1342 24.3967 18.276 24.3687 18.4196 24.3127C18.5633 24.2567 18.7015 24.1727 18.8342 24.0607C19.3382 23.6127 19.9472 23.0387 20.6611 22.3387C21.3751 21.6387 22.0611 20.8827 22.7191 20.0707C23.3771 19.2588 23.9441 18.4258 24.4201 17.5718C24.8961 16.7178 25.1341 15.9268 25.1341 15.1988C25.1341 14.1119 24.7771 13.2101 24.0631 12.4936C23.3491 11.7771 22.4461 11.4189 21.3541 11.4189C20.7101 11.4189 20.0942 11.5799 19.5062 11.9018C18.9182 12.2238 18.4142 12.6088 17.9942 13.0568C17.5742 12.6088 17.0691 12.2238 16.4788 11.9018C15.8886 11.5799 15.2786 11.4189 14.6489 11.4189C13.5471 11.4189 12.6393 11.7771 11.9253 12.4936C11.2113 13.2101 10.8543 14.1119 10.8543 15.1988C10.8543 15.9268 11.0923 16.7178 11.5683 17.5718C12.0443 18.4258 12.6113 19.2588 13.2692 20.0707C13.9272 20.8827 14.6132 21.6387 15.3272 22.3387C16.0412 23.0387 16.6502 23.6127 17.1542 24.0607C17.2869 24.1727 17.4251 24.2567 17.5687 24.3127C17.7124 24.3687 17.8542 24.3967 17.9942 24.3967ZM7.07433 30.2346C6.38134 30.2346 5.78817 29.9878 5.29481 29.4942C4.80118 29.0008 4.55436 28.4076 4.55436 27.7146V13.3928L2.0344 15.3248C1.7446 15.5488 1.43422 15.6328 1.10327 15.5768C0.772032 15.5208 0.494416 15.3528 0.270419 15.0728C0.046422 14.7928 -0.038417 14.4822 0.0159023 14.1408C0.0705016 13.7995 0.239339 13.5222 0.522416 13.3088L16.4822 1.17099C16.7062 1.00299 16.9471 0.869997 17.205 0.771998C17.4629 0.673999 17.7259 0.625 17.9942 0.625C18.2624 0.625 18.5255 0.673999 18.7834 0.771998C19.0412 0.869997 19.2822 1.00299 19.5062 1.17099L35.5079 13.3508C35.7863 13.5642 35.9468 13.8415 35.9897 14.1828C36.0325 14.5242 35.9419 14.84 35.7179 15.1303C35.494 15.4 35.221 15.5558 34.899 15.5978C34.577 15.6398 34.276 15.5488 33.996 15.3248L31.434 13.3928V27.7146C31.434 28.4076 31.1873 29.0008 30.694 29.4942C30.2003 29.9878 29.607 30.2346 28.914 30.2346H7.07433ZM7.07433 27.7146H28.914V11.4609L17.9942 3.14497L7.07433 11.4609V27.7146Z" fill="#0471E9"/>
</svg>
