<svg width="27" height="28" viewBox="0 0 27 28" fill="none" xmlns="http://www.w3.org/2000/svg">
<path d="M2.25 25.25H17.25V18.875C17.25 18.5562 17.3579 18.289 17.5736 18.0732C17.7891 17.8577 18.0562 17.75 18.375 17.75H24.75V2.75H2.25V25.25ZM2.25 27.5C1.63125 27.5 1.10163 27.2796 0.661125 26.8389C0.220375 26.3984 0 25.8687 0 25.25V2.75C0 2.13125 0.220375 1.6015 0.661125 1.16075C1.10163 0.72025 1.63125 0.5 2.25 0.5H24.75C25.3687 0.5 25.8985 0.72025 26.3392 1.16075C26.7797 1.6015 27 2.13125 27 2.75V17.5625C27 17.8735 26.9375 18.17 26.8125 18.452C26.6875 18.734 26.525 18.975 26.325 19.175L18.675 26.825C18.475 27.025 18.234 27.1875 17.952 27.3125C17.67 27.4375 17.3735 27.5 17.0625 27.5H2.25ZM12 16.25H7.875C7.55625 16.25 7.28913 16.1415 7.07363 15.9245C6.85788 15.7078 6.75 15.439 6.75 15.1183C6.75 14.7978 6.85788 14.5313 7.07363 14.3188C7.28913 14.1063 7.55625 14 7.875 14H12C12.3188 14 12.586 14.1085 12.8018 14.3255C13.0173 14.5422 13.125 14.811 13.125 15.1318C13.125 15.4523 13.0173 15.7188 12.8018 15.9313C12.586 16.1438 12.3188 16.25 12 16.25ZM19.125 10.25H7.875C7.55625 10.25 7.28913 10.1415 7.07363 9.9245C6.85788 9.70775 6.75 9.439 6.75 9.11825C6.75 8.79775 6.85788 8.53125 7.07363 8.31875C7.28913 8.10625 7.55625 8 7.875 8H19.125C19.4438 8 19.711 8.1085 19.9268 8.3255C20.1423 8.54225 20.25 8.811 20.25 9.13175C20.25 9.45225 20.1423 9.71875 19.9268 9.93125C19.711 10.1438 19.4438 10.25 19.125 10.25Z" fill="#999999"/>
</svg>
