<svg width="28" height="29" viewBox="0 0 28 29" fill="none" xmlns="http://www.w3.org/2000/svg">
<path d="M4.97 22.375C6.44 21.3483 7.89833 20.5608 9.345 20.0125C10.7917 19.4641 12.3433 19.19 14 19.19C15.6567 19.19 17.2142 19.4641 18.6725 20.0125C20.1308 20.5608 21.595 21.3483 23.065 22.375C24.0917 21.115 24.8208 19.8433 25.2525 18.56C25.6842 17.2766 25.9 15.9233 25.9 14.5C25.9 11.1166 24.7625 8.28747 22.4875 6.01247C20.2125 3.73747 17.3833 2.59997 14 2.59997C10.6167 2.59997 7.7875 3.73747 5.5125 6.01247C3.2375 8.28747 2.1 11.1166 2.1 14.5C2.1 15.9233 2.32167 17.2766 2.765 18.56C3.20833 19.8433 3.94333 21.115 4.97 22.375ZM13.9933 15.55C12.6444 15.55 11.5092 15.0869 10.5875 14.1608C9.66583 13.235 9.205 12.0975 9.205 10.7483C9.205 9.39942 9.66805 8.26414 10.5942 7.34247C11.52 6.4208 12.6575 5.95997 14.0066 5.95997C15.3555 5.95997 16.4908 6.42302 17.4125 7.34912C18.3342 8.27499 18.795 9.41249 18.795 10.7616C18.795 12.1105 18.3319 13.2458 17.4058 14.1675C16.48 15.0891 15.3425 15.55 13.9933 15.55ZM14.0164 28.5C12.0921 28.5 10.2783 28.1325 8.575 27.3975C6.87167 26.6625 5.38417 25.6591 4.1125 24.3875C2.84083 23.1158 1.8375 21.631 1.1025 19.933C0.3675 18.2353 0 16.4211 0 14.4905C0 12.5602 0.3675 10.7491 1.1025 9.05747C1.8375 7.3658 2.84083 5.88414 4.1125 4.61247C5.38417 3.3408 6.86898 2.33747 8.56695 1.60247C10.2647 0.86747 12.0788 0.499969 14.0094 0.499969C15.9398 0.499969 17.7508 0.86747 19.4425 1.60247C21.1342 2.33747 22.6158 3.3408 23.8875 4.61247C25.1592 5.88414 26.1625 7.36615 26.8975 9.05852C27.6325 10.7509 28 12.5592 28 14.4835C28 16.4078 27.6325 18.2216 26.8975 19.925C26.1625 21.6283 25.1592 23.1158 23.8875 24.3875C22.6158 25.6591 21.1338 26.6625 19.4414 27.3975C17.7491 28.1325 15.9408 28.5 14.0164 28.5ZM14 26.4C15.2833 26.4 16.5375 26.2133 17.7625 25.84C18.9875 25.4666 20.195 24.8133 21.385 23.88C20.195 23.04 18.9817 22.3983 17.745 21.955C16.5083 21.5116 15.26 21.29 14 21.29C12.74 21.29 11.4917 21.5116 10.255 21.955C9.01833 22.3983 7.805 23.04 6.615 23.88C7.805 24.8133 9.0125 25.4666 10.2375 25.84C11.4625 26.2133 12.7167 26.4 14 26.4ZM14 13.45C14.7933 13.45 15.4408 13.1991 15.9425 12.6975C16.4442 12.1958 16.695 11.5483 16.695 10.755C16.695 9.96164 16.4442 9.31414 15.9425 8.81247C15.4408 8.3108 14.7933 8.05997 14 8.05997C13.2067 8.05997 12.5592 8.3108 12.0575 8.81247C11.5558 9.31414 11.305 9.96164 11.305 10.755C11.305 11.5483 11.5558 12.1958 12.0575 12.6975C12.5592 13.1991 13.2067 13.45 14 13.45Z" fill="#999999"/>
</svg>
