<svg width="18" height="18" viewBox="0 0 18 18" fill="none" xmlns="http://www.w3.org/2000/svg">
<circle cx="9" cy="9" r="8.5" stroke="#C3C3C3"/>
<path d="M7.50002 12.5697L7.50002 12.5696C7.49733 12.4139 7.55103 12.2751 7.65735 12.161L10.5992 9.00172L7.65735 5.84247C7.55164 5.72896 7.49697 5.59125 7.49697 5.43641C7.49697 5.28153 7.55162 5.14378 7.65735 5.03024C7.76318 4.91659 7.89623 4.85323 8.05015 4.85012C8.20636 4.84696 8.34188 4.90847 8.44907 5.02349L8.44912 5.02353L11.542 8.34497C11.542 8.34497 11.542 8.34497 11.542 8.34497C11.6281 8.43751 11.693 8.54249 11.7353 8.65929C11.776 8.77174 11.797 8.88611 11.797 9.00172C11.797 9.11733 11.776 9.2317 11.7353 9.34415C11.693 9.46095 11.6281 9.56593 11.542 9.65847L11.5418 9.65858L8.44907 12.9732C8.34318 13.0869 8.21017 13.15 8.05631 13.15C7.90244 13.15 7.76943 13.0869 7.66354 12.9732L7.6635 12.9732C7.55839 12.8603 7.50277 12.7236 7.50002 12.5697Z" fill="#888888" stroke="#888888" stroke-width="0.3"/>
</svg>
