<svg width="12" height="7" viewBox="0 0 12 7" fill="none" xmlns="http://www.w3.org/2000/svg">
<path d="M10.2997 1.12407L10.2996 1.12407C10.1147 1.12087 9.95063 1.18434 9.81496 1.31068L5.84035 5.01185L1.86573 1.31068C1.73071 1.18494 1.56768 1.12026 1.38371 1.12026C1.19968 1.12026 1.03659 1.18493 0.901556 1.31068C0.766401 1.43653 0.692005 1.59342 0.688333 1.77499C0.684614 1.95885 0.7566 2.11822 0.893121 2.24546L0.893169 2.2455L5.04496 6.11154C5.15707 6.21594 5.28398 6.29437 5.42507 6.34542C5.5618 6.39489 5.70045 6.42026 5.84035 6.42026C5.98024 6.42026 6.11889 6.39489 6.25562 6.34542C6.39671 6.29437 6.52362 6.21594 6.63573 6.11154L6.63584 6.11144L10.7792 2.24546C10.9143 2.11952 10.9882 1.96293 10.9882 1.78193C10.9882 1.60094 10.9143 1.44434 10.7792 1.3184L10.7791 1.31836C10.6448 1.19323 10.4827 1.12734 10.2997 1.12407Z" fill="#111111" stroke="#111111" stroke-width="0.3"/>
</svg>
