<svg width="20" height="20" viewBox="0 0 20 20" fill="none" xmlns="http://www.w3.org/2000/svg">
<path d="M7.24648 14.489C5.22292 14.489 3.50923 13.7874 2.10542 12.3841C0.701807 10.9807 0 9.26749 0 7.24448C0 5.22148 0.701807 3.50827 2.10542 2.10484C3.50923 0.701614 5.22292 0 7.24648 0C9.27004 0 10.9837 0.701614 12.3875 2.10484C13.7912 3.50827 14.493 5.22148 14.493 7.24448C14.493 8.09053 14.351 8.89856 14.067 9.66859C13.7828 10.4386 13.4037 11.1083 12.9297 11.6778L19.7481 18.4943C19.9122 18.6582 19.9961 18.8643 19.9999 19.1127C20.0036 19.3611 19.9197 19.5711 19.7481 19.7426C19.5764 19.9142 19.3683 20 19.1236 20C18.8791 20 18.671 19.9142 18.4994 19.7426L11.681 12.9261C11.0885 13.4152 10.4071 13.7979 9.63689 14.0743C8.86665 14.3508 8.06985 14.489 7.24648 14.489ZM7.24648 12.7123C8.77333 12.7123 10.0665 12.1825 11.1261 11.1231C12.1859 10.0638 12.7158 8.77092 12.7158 7.24448C12.7158 5.71805 12.1859 4.42519 11.1261 3.36591C10.0665 2.30643 8.77333 1.77669 7.24648 1.77669C5.71963 1.77669 4.42641 2.30643 3.36684 3.36591C2.30707 4.42519 1.77718 5.71805 1.77718 7.24448C1.77718 8.77092 2.30707 10.0638 3.36684 11.1231C4.42641 12.1825 5.71963 12.7123 7.24648 12.7123Z" fill="#999999"/>
</svg>
