<svg width="10" height="16" viewBox="0 0 10 16" fill="none" xmlns="http://www.w3.org/2000/svg">
<path d="M1.13758 2.39873L7.09543 7.99699L1.13758 13.5952C0.949835 13.7717 0.850003 13.9875 0.850003 14.2363C0.850003 14.4852 0.949813 14.7011 1.13758 14.8775C1.32513 15.0537 1.55157 15.1453 1.80977 15.1498C2.06977 15.1544 2.29841 15.0667 2.48741 14.8893L2.48746 14.8892L8.67312 9.07673C8.83308 8.92642 8.95406 8.75558 9.03318 8.56424C9.11036 8.37759 9.15 8.1882 9.15 7.99699C9.15 7.80578 9.11036 7.61638 9.03318 7.42974C8.95406 7.2384 8.83308 7.06756 8.67312 6.91725L8.67301 6.91715L2.48741 1.11644C2.29968 0.940185 2.07442 0.85 1.81867 0.85C1.56291 0.85 1.33766 0.940185 1.14992 1.11644L1.14988 1.11648C0.962792 1.29228 0.861136 1.50692 0.856079 1.75464L0.856077 1.75474C0.851137 2.00467 0.949156 2.22168 1.13758 2.39873Z" fill="#111111" stroke="#111111" stroke-width="0.3"/>
</svg>
