<svg width="6" height="11" viewBox="0 0 6 11" fill="none" xmlns="http://www.w3.org/2000/svg">
<path d="M4.21682 5.65965L0.42045 1.58282C0.320326 1.4753 0.271523 1.3487 0.274044 1.20302C0.276648 1.05725 0.328011 0.930609 0.428135 0.823088C0.528344 0.715566 0.646276 0.661804 0.78193 0.661804C0.917585 0.661804 1.03552 0.715566 1.13573 0.823088L5.00177 4.96649C5.0929 5.06436 5.16044 5.174 5.20437 5.29542C5.2483 5.41683 5.27026 5.53824 5.27026 5.65965C5.27026 5.78107 5.2483 5.90248 5.20437 6.02389C5.16044 6.1453 5.0929 6.25495 5.00177 6.35282L1.13573 10.5046C1.03552 10.6121 0.916284 10.6645 0.778025 10.6617C0.639766 10.6589 0.520574 10.6037 0.42045 10.4962C0.320326 10.3887 0.270264 10.2621 0.270264 10.1163C0.270264 9.97061 0.320326 9.84401 0.42045 9.73649L4.21682 5.65965Z" fill="#111111"/>
</svg>
