<svg width="14" height="14" viewBox="0 0 14 14" fill="none" xmlns="http://www.w3.org/2000/svg">
<path d="M7 8.16267L1.40265 13.7603C1.24983 13.9129 1.05776 13.9911 0.826418 13.9948C0.595264 13.9983 0.399693 13.9201 0.239705 13.7603C0.0799018 13.6003 0 13.4065 0 13.1788C0 12.9512 0.0799018 12.7573 0.239705 12.5974L5.83733 7L0.239705 1.40265C0.0870736 1.24983 0.0089189 1.05776 0.00524103 0.826418C0.00174706 0.595264 0.0799018 0.399693 0.239705 0.239705C0.399693 0.0799018 0.593516 0 0.821177 0C1.04884 0 1.24266 0.0799018 1.40265 0.239705L7 5.83733L12.5974 0.239705C12.7502 0.0870736 12.9422 0.0089189 13.1736 0.00524103C13.4047 0.00174706 13.6003 0.0799018 13.7603 0.239705C13.9201 0.399693 14 0.593517 14 0.821177C14 1.04884 13.9201 1.24266 13.7603 1.40265L8.16267 7L13.7603 12.5974C13.9129 12.7502 13.9911 12.9422 13.9948 13.1736C13.9983 13.4047 13.9201 13.6003 13.7603 13.7603C13.6003 13.9201 13.4065 14 13.1788 14C12.9512 14 12.7573 13.9201 12.5974 13.7603L7 8.16267Z" fill="#999999"/>
</svg>
