<svg width="18" height="18" viewBox="0 0 18 18" fill="none" xmlns="http://www.w3.org/2000/svg">
<circle cx="9" cy="9" r="8.5" transform="matrix(-1 0 0 1 18 0)" stroke="#C3C3C3"/>
<path d="M10.5 12.5697L10.5 12.5696C10.5027 12.4139 10.449 12.2751 10.3427 12.161L7.40075 9.00172L10.3427 5.84247C10.4484 5.72896 10.503 5.59125 10.503 5.43641C10.503 5.28153 10.4484 5.14378 10.3427 5.03024C10.2368 4.91659 10.1038 4.85323 9.94985 4.85012C9.79364 4.84696 9.65812 4.90847 9.55093 5.02349L9.55088 5.02353L6.45805 8.34497C6.45805 8.34497 6.45805 8.34497 6.45805 8.34497C6.37188 8.43751 6.30696 8.54249 6.26469 8.65929C6.22401 8.77174 6.20303 8.88611 6.20303 9.00172C6.20303 9.11733 6.22401 9.2317 6.26469 9.34415C6.30696 9.46095 6.37188 9.56593 6.45805 9.65847L6.45815 9.65858L9.55093 12.9732C9.65682 13.0869 9.78983 13.15 9.94369 13.15C10.0976 13.15 10.2306 13.0869 10.3365 12.9732L10.3365 12.9732C10.4416 12.8603 10.4972 12.7236 10.5 12.5697Z" fill="#888888" stroke="#888888" stroke-width="0.3"/>
</svg>
