<svg width="25" height="25" viewBox="0 0 25 25" fill="none" xmlns="http://www.w3.org/2000/svg">
<circle cx="12.5" cy="12.5" r="12" transform="matrix(-1 0 0 1 25 0)" stroke="#111111"/>
<path d="M14.147 16.5697L14.147 16.5696C14.1496 16.4139 14.0959 16.2751 13.9896 16.161L11.0477 13.0017L13.9896 9.84247C14.0953 9.72896 14.15 9.59125 14.15 9.43641C14.15 9.28153 14.0953 9.14378 13.9896 9.03024C13.8838 8.91659 13.7507 8.85323 13.5968 8.85012C13.4406 8.84696 13.3051 8.90847 13.1979 9.02349L13.1979 9.02353L10.105 12.345C10.0189 12.4375 9.95393 12.5425 9.91167 12.6593C9.87098 12.7717 9.85 12.8861 9.85 13.0017C9.85 13.1173 9.87098 13.2317 9.91167 13.3441C9.95393 13.461 10.0189 13.5659 10.105 13.6585L10.1051 13.6586L13.1979 16.9732C13.3038 17.0869 13.4368 17.15 13.5907 17.15C13.7445 17.15 13.8775 17.0869 13.9834 16.9732L13.9835 16.9732C14.0886 16.8603 14.1442 16.7236 14.147 16.5697Z" fill="#111111" stroke="#111111" stroke-width="0.3"/>
</svg>
