<svg width="12" height="7" viewBox="0 0 12 7" fill="none" xmlns="http://www.w3.org/2000/svg">
<path d="M1.70034 5.87593L1.70042 5.87593C1.88529 5.87913 2.04937 5.81566 2.18504 5.68932L6.15965 1.98815L10.1343 5.68932C10.2693 5.81506 10.4323 5.87974 10.6163 5.87974C10.8003 5.87974 10.9634 5.81507 11.0984 5.68932C11.2336 5.56347 11.308 5.40658 11.3117 5.22501C11.3154 5.04115 11.2434 4.88178 11.1069 4.75454L11.1068 4.7545L6.95504 0.888458C6.84293 0.784059 6.71602 0.705631 6.57493 0.654581C6.4382 0.605108 6.29955 0.579736 6.15965 0.579736C6.01976 0.579736 5.88111 0.605108 5.74438 0.654581C5.60329 0.705631 5.47638 0.784058 5.36427 0.888458L5.36416 0.888559L1.22082 4.75454C1.08569 4.88048 1.0118 5.03707 1.0118 5.21807C1.0118 5.39906 1.08569 5.55566 1.22082 5.6816L1.22086 5.68164C1.35524 5.80677 1.51725 5.87266 1.70034 5.87593Z" fill="#111111" stroke="#111111" stroke-width="0.3"/>
</svg>
