<svg width="25" height="25" viewBox="0 0 25 25" fill="none" xmlns="http://www.w3.org/2000/svg">
<circle cx="12.5" cy="12.5" r="12" transform="matrix(-1 0 0 1 25 0)" stroke="#111111"/>
<path d="M10.853 16.5697L10.853 16.5696C10.8504 16.4139 10.9041 16.2751 11.0104 16.161L13.9523 13.0017L11.0104 9.84247C10.9047 9.72896 10.85 9.59125 10.85 9.43641C10.85 9.28153 10.9047 9.14378 11.0104 9.03024C11.1162 8.91659 11.2493 8.85323 11.4032 8.85012C11.5594 8.84696 11.6949 8.90847 11.8021 9.02349L11.8021 9.02353L14.895 12.345C14.9811 12.4375 15.0461 12.5425 15.0883 12.6593C15.129 12.7717 15.15 12.8861 15.15 13.0017C15.15 13.1173 15.129 13.2317 15.0883 13.3441C15.0461 13.461 14.9811 13.5659 14.895 13.6585L14.8949 13.6586L11.8021 16.9732C11.6962 17.0869 11.5632 17.15 11.4093 17.15C11.2555 17.15 11.1225 17.0869 11.0166 16.9732L11.0165 16.9732C10.9114 16.8603 10.8558 16.7236 10.853 16.5697Z" fill="#111111" stroke="#111111" stroke-width="0.3"/>
</svg>
