<svg width="12" height="15" viewBox="0 0 12 15" fill="none" xmlns="http://www.w3.org/2000/svg">
<path d="M8.04107 12.0753C7.40002 13.1857 6.51858 13.9365 5.39676 14.3279C4.27497 14.7195 3.23218 14.6371 2.26839 14.0806C1.3046 13.5242 0.71082 12.6617 0.487049 11.4933C0.263211 10.325 0.471819 9.18568 1.11287 8.07534L4.66175 1.9285C5.11721 1.13962 5.74255 0.606599 6.53776 0.329441C7.33287 0.0522262 8.07341 0.111638 8.75937 0.507676C9.44533 0.903715 9.8671 1.51536 10.0247 2.34261C10.1823 3.16987 10.0333 3.97793 9.57786 4.76681L6.21874 10.585C5.95157 11.0477 5.58333 11.3619 5.11401 11.5274C4.64458 11.6929 4.20844 11.6593 3.80556 11.4267C3.40259 11.1941 3.15261 10.833 3.05564 10.3436C2.95867 9.85412 3.04509 9.37574 3.31489 8.90842L6.78019 2.90635L7.67179 3.42112L4.2065 9.42319C4.10071 9.60643 4.06518 9.79164 4.09993 9.97882C4.13467 10.166 4.2317 10.3056 4.39103 10.3976C4.55026 10.4895 4.71961 10.5037 4.89909 10.4402C5.07857 10.3767 5.2212 10.2533 5.32699 10.0701L8.68985 4.24546C8.97522 3.737 9.06957 3.22142 8.97291 2.69871C8.87624 2.17601 8.60769 1.78751 8.16726 1.53323C7.72872 1.28004 7.25633 1.2422 6.75011 1.41971C6.24382 1.59734 5.84496 1.93855 5.55351 2.44335L2.00463 8.5902C1.52125 9.41325 1.36385 10.2597 1.53242 11.1294C1.70093 11.9993 2.14432 12.6416 2.86258 13.0563C3.57063 13.4651 4.33979 13.5228 5.17004 13.2296C6.00014 12.9364 6.65989 12.38 7.14932 11.5605L10.8044 5.22973L11.6961 5.74458L8.04107 12.0753Z" fill="#999999"/>
</svg>
