<svg width="14" height="18" viewBox="0 0 14 18" fill="none" xmlns="http://www.w3.org/2000/svg">
<path d="M7 9C7.48125 9 7.89323 8.82375 8.23594 8.47125C8.57865 8.11875 8.75 7.695 8.75 7.2C8.75 6.705 8.57865 6.28125 8.23594 5.92875C7.89323 5.57625 7.48125 5.4 7 5.4C6.51875 5.4 6.10677 5.57625 5.76406 5.92875C5.42135 6.28125 5.25 6.705 5.25 7.2C5.25 7.695 5.42135 8.11875 5.76406 8.47125C6.10677 8.82375 6.51875 9 7 9ZM7 15.615C8.77917 13.935 10.099 12.4087 10.9594 11.0362C11.8198 9.66375 12.25 8.445 12.25 7.38C12.25 5.745 11.7432 4.40625 10.7297 3.36375C9.71615 2.32125 8.47292 1.8 7 1.8C5.52708 1.8 4.28385 2.32125 3.27031 3.36375C2.25677 4.40625 1.75 5.745 1.75 7.38C1.75 8.445 2.18021 9.66375 3.04063 11.0362C3.90104 12.4087 5.22083 13.935 7 15.615ZM7 18C4.65208 15.945 2.89844 14.0362 1.73906 12.2737C0.579688 10.5112 0 8.88 0 7.38C0 5.13 0.703646 3.3375 2.11094 2.0025C3.51823 0.6675 5.14792 0 7 0C8.85208 0 10.4818 0.6675 11.8891 2.0025C13.2964 3.3375 14 5.13 14 7.38C14 8.88 13.4203 10.5112 12.2609 12.2737C11.1016 14.0362 9.34792 15.945 7 18Z" fill="#999999"/>
</svg>
