<svg width="20" height="20" viewBox="0 0 20 20" fill="none" xmlns="http://www.w3.org/2000/svg">
<path d="M10 9.57887C8.71667 9.57887 7.61811 9.10996 6.70433 8.17215C5.79033 7.2341 5.33333 6.10653 5.33333 4.78944C5.33333 3.47234 5.79033 2.34489 6.70433 1.40707C7.61811 0.469023 8.71667 0 10 0C11.2833 0 12.3819 0.469023 13.2957 1.40707C14.2097 2.34489 14.6667 3.47234 14.6667 4.78944C14.6667 6.10653 14.2097 7.2341 13.2957 8.17215C12.3819 9.10996 11.2833 9.57887 10 9.57887ZM0 17.921V16.9577C0 16.2876 0.177334 15.667 0.532 15.096C0.886667 14.5249 1.36067 14.0858 1.954 13.7789C3.27178 13.1159 4.60122 12.6186 5.94233 12.287C7.28344 11.9553 8.636 11.7895 10 11.7895C11.364 11.7895 12.7166 11.9553 14.0577 12.287C15.3988 12.6186 16.7282 13.1159 18.046 13.7789C18.6393 14.0858 19.1133 14.5249 19.468 15.096C19.8227 15.667 20 16.2876 20 16.9577V17.921C20 18.4981 19.803 18.9889 19.409 19.3935C19.015 19.7978 18.5368 20 17.9743 20H2.02567C1.46322 20 0.985 19.7978 0.591 19.3935C0.197 18.9889 0 18.4981 0 17.921ZM2 17.9474H18V16.9577C18 16.6806 17.9218 16.424 17.7653 16.188C17.6089 15.9521 17.3966 15.7596 17.1283 15.6105C15.9794 15.0298 14.8081 14.5899 13.6143 14.2907C12.4203 13.9917 11.2156 13.8422 10 13.8422C8.78444 13.8422 7.57967 13.9917 6.38567 14.2907C5.19189 14.5899 4.02056 15.0298 2.87167 15.6105C2.60344 15.7596 2.39111 15.9521 2.23467 16.188C2.07822 16.424 2 16.6806 2 16.9577V17.9474ZM10 7.52626C10.7333 7.52626 11.3611 7.25828 11.8833 6.72232C12.4056 6.18635 12.6667 5.54206 12.6667 4.78944C12.6667 4.03681 12.4056 3.39252 11.8833 2.85656C11.3611 2.3206 10.7333 2.05262 10 2.05262C9.26667 2.05262 8.63889 2.3206 8.11667 2.85656C7.59444 3.39252 7.33333 4.03681 7.33333 4.78944C7.33333 5.54206 7.59444 6.18635 8.11667 6.72232C8.63889 7.25828 9.26667 7.52626 10 7.52626Z" fill="#999999"/>
</svg>
