<svg width="16" height="10" viewBox="0 0 16 10" fill="none" xmlns="http://www.w3.org/2000/svg">
<path d="M13.6013 1.13758L8.00301 7.09543L2.40475 1.13758C2.22833 0.949835 2.01253 0.850003 1.76372 0.850003C1.51481 0.850003 1.29894 0.949813 1.1225 1.13758C0.946279 1.32513 0.85474 1.55157 0.850171 1.80977C0.84557 2.06977 0.933265 2.29841 1.11071 2.48741L1.11076 2.48746L6.92327 8.67312C7.07358 8.83308 7.24442 8.95406 7.43576 9.03318C7.62241 9.11036 7.8118 9.15 8.00301 9.15C8.19422 9.15 8.38362 9.11036 8.57026 9.03318C8.7616 8.95406 8.93244 8.83308 9.08275 8.67312L9.08285 8.67301L14.8836 2.48741C15.0598 2.29968 15.15 2.07442 15.15 1.81867C15.15 1.56291 15.0598 1.33766 14.8836 1.14992L14.8835 1.14988C14.7077 0.962792 14.4931 0.861136 14.2454 0.856079L14.2453 0.856077C13.9953 0.851137 13.7783 0.949156 13.6013 1.13758Z" fill="#111111" stroke="#111111" stroke-width="0.3"/>
</svg>
