<svg width="16" height="10" viewBox="0 0 16 10" fill="none" xmlns="http://www.w3.org/2000/svg">
<path d="M13.6013 8.86242L8.00301 2.90457L2.40475 8.86242C2.22833 9.05017 2.01253 9.15 1.76372 9.15C1.51481 9.15 1.29894 9.05019 1.1225 8.86242C0.946279 8.67487 0.85474 8.44843 0.850171 8.19023C0.84557 7.93023 0.933265 7.70159 1.11071 7.51259L1.11076 7.51254L6.92327 1.32688C7.07358 1.16692 7.24442 1.04594 7.43576 0.966818C7.62241 0.889636 7.8118 0.850001 8.00301 0.850001C8.19422 0.850001 8.38362 0.889636 8.57026 0.966818C8.7616 1.04594 8.93244 1.16692 9.08275 1.32688L9.08285 1.32699L14.8836 7.51259C15.0598 7.70032 15.15 7.92558 15.15 8.18133C15.15 8.43709 15.0598 8.66234 14.8836 8.85008L14.8835 8.85012C14.7077 9.03721 14.4931 9.13886 14.2454 9.14392L14.2453 9.14392C13.9953 9.14886 13.7783 9.05084 13.6013 8.86242Z" fill="#F4FAFF" stroke="#F4FAFF" stroke-width="0.3"/>
</svg>
