<svg width="10" height="20" viewBox="0 0 10 20" fill="none" xmlns="http://www.w3.org/2000/svg">
<path d="M2.10689 10.0043L9.69963 18.158C9.89988 18.373 9.99748 18.6262 9.99244 18.9176C9.98723 19.2091 9.88451 19.4624 9.68426 19.6774C9.48384 19.8925 9.24798 20 8.97667 20C8.70536 20 8.46949 19.8925 8.26908 19.6774L0.536992 11.3906C0.354719 11.1949 0.219652 10.9756 0.131791 10.7328C0.0439307 10.49 0 10.2471 0 10.0043C0 9.76147 0.0439307 9.51865 0.131791 9.27582C0.219652 9.033 0.354719 8.81372 0.536992 8.61798L8.26908 0.314388C8.46949 0.0993448 8.70796 -0.00537992 8.98448 0.000212637C9.26099 0.00580519 9.49938 0.116122 9.69963 0.331165C9.89988 0.546208 10 0.799497 10 1.09103C10 1.38239 9.89988 1.63558 9.69963 1.85063L2.10689 10.0043Z" fill="#111111"/>
</svg>
