<svg width="24" height="20" viewBox="0 0 24 20" fill="none" xmlns="http://www.w3.org/2000/svg">
<path d="M11.9968 15.9376C12.1342 15.9376 12.2622 15.9161 12.3809 15.873C12.4996 15.8301 12.6114 15.7617 12.7163 15.6678C13.281 15.1486 13.8175 14.6397 14.3256 14.1411C14.834 13.6422 15.2787 13.1535 15.6597 12.675C16.0408 12.1965 16.3462 11.7294 16.576 11.2736C16.8058 10.8179 16.9207 10.3773 16.9207 9.95182C16.9207 9.16697 16.6565 8.51496 16.1281 7.99579C15.5999 7.47662 14.9648 7.21704 14.2228 7.21704C13.7631 7.21704 13.3447 7.31207 12.9675 7.50213C12.5903 7.69199 12.2667 7.93633 11.9968 8.23515C11.7423 7.93633 11.4183 7.69199 11.0249 7.50213C10.6316 7.31207 10.2213 7.21704 9.79396 7.21704C9.05197 7.21704 8.41676 7.47662 7.88834 7.99579C7.36012 8.51496 7.09601 9.16697 7.09601 9.95182C7.09601 10.3773 7.20901 10.8179 7.43502 11.2736C7.66103 11.7294 7.96455 12.1965 8.34557 12.675C8.72659 13.1535 9.17119 13.6422 9.67936 14.1411C10.1877 14.6397 10.7204 15.1486 11.2773 15.6678C11.3821 15.7617 11.4939 15.8301 11.6127 15.873C11.7314 15.9161 11.8594 15.9376 11.9968 15.9376ZM5.14767 20C4.54766 20 4.03508 19.7846 3.60994 19.3539C3.18499 18.9229 2.97252 18.4034 2.97252 17.7952V8.70624L1.44532 9.90974C1.23395 10.0661 1.01025 10.1278 0.774213 10.0948C0.538379 10.0621 0.343254 9.93861 0.188839 9.72436C0.0346246 9.5101 -0.0251361 9.28335 0.00955723 9.04409C0.0442505 8.80483 0.161165 8.60704 0.3603 8.45072L10.6618 0.440906C10.8591 0.293937 11.0716 0.18366 11.2992 0.110074C11.5266 0.036691 11.7591 0 11.9968 0C12.2344 0 12.465 0.036691 12.6886 0.110074C12.9122 0.18366 13.1228 0.293937 13.3203 0.440906L23.6519 8.45072C23.8509 8.60704 23.9647 8.80483 23.9933 9.04409C24.0218 9.28335 23.9589 9.5101 23.8047 9.72436C23.6503 9.92601 23.4552 10.0433 23.2194 10.0762C22.9833 10.109 22.7657 10.0472 22.5666 9.89084L21.021 8.70624V17.7952C21.021 18.4034 20.8086 18.9229 20.3836 19.3539C19.9585 19.7846 19.4459 20 18.8459 20H5.14767ZM5.14767 18.1705H18.8459C18.954 18.1705 19.0427 18.1353 19.1121 18.065C19.1815 17.9947 19.2162 17.9047 19.2162 17.7952V7.31553L12.2167 1.91151C12.1549 1.85683 12.0816 1.82949 11.9968 1.82949C11.912 1.82949 11.8387 1.85683 11.7769 1.91151L4.77738 7.31553V17.7952C4.77738 17.9047 4.81207 17.9947 4.88146 18.065C4.95084 18.1353 5.03958 18.1705 5.14767 18.1705ZM5.14767 18.1705H4.77738H19.2162H5.14767Z" fill="#999999"/>
</svg>
