<svg width="18" height="20" viewBox="0 0 18 20" fill="none" xmlns="http://www.w3.org/2000/svg">
<path d="M2.1693 20C1.5709 20 1.0597 19.8189 0.6357 19.4567C0.2119 19.0943 0 18.6574 0 18.1459V8.52077C0 8.00932 0.2119 7.57239 0.6357 7.21C1.0597 6.84778 1.5709 6.66667 2.1693 6.66667H3.6V4.61539C3.6 3.3347 4.1254 2.2453 5.1762 1.34718C6.227 0.449059 7.5016 0 9 0C10.4984 0 11.773 0.449059 12.8238 1.34718C13.8746 2.2453 14.4 3.3347 14.4 4.61539V6.66667H15.8307C16.4291 6.66667 16.9403 6.84778 17.3643 7.21C17.7881 7.57239 18 8.00932 18 8.52077V18.1459C18 18.6574 17.7881 19.0943 17.3643 19.4567C16.9403 19.8189 16.4291 20 15.8307 20H2.1693ZM2.1693 18.4615H15.8307C15.9385 18.4615 16.027 18.432 16.0962 18.3728C16.1654 18.3137 16.2 18.238 16.2 18.1459V8.52077C16.2 8.42863 16.1654 8.35299 16.0962 8.29385C16.027 8.2347 15.9385 8.20513 15.8307 8.20513H2.1693C2.0615 8.20513 1.973 8.2347 1.9038 8.29385C1.8346 8.35299 1.8 8.42863 1.8 8.52077V18.1459C1.8 18.238 1.8346 18.3137 1.9038 18.3728C1.973 18.432 2.0615 18.4615 2.1693 18.4615ZM9 15.1282C9.583 15.1282 10.0788 14.9537 10.4874 14.6046C10.8958 14.2554 11.1 13.8316 11.1 13.3333C11.1 12.835 10.8958 12.4113 10.4874 12.0621C10.0788 11.713 9.583 11.5385 9 11.5385C8.417 11.5385 7.9212 11.713 7.5126 12.0621C7.1042 12.4113 6.9 12.835 6.9 13.3333C6.9 13.8316 7.1042 14.2554 7.5126 14.6046C7.9212 14.9537 8.417 15.1282 9 15.1282ZM5.4 6.66667H12.6V4.61539C12.6 3.76068 12.25 3.03419 11.55 2.4359C10.85 1.83761 10 1.53846 9 1.53846C8 1.53846 7.15 1.83761 6.45 2.4359C5.75 3.03419 5.4 3.76068 5.4 4.61539V6.66667Z" fill="#999999"/>
</svg>
