<svg width="20" height="24" viewBox="0 0 20 24" fill="none" xmlns="http://www.w3.org/2000/svg">
<path d="M2.17425 23.5C1.56666 23.5 1.05239 23.2632 0.631437 22.7897C0.210479 22.3162 0 21.7377 0 21.0542V2.94578C0 2.26232 0.210479 1.68382 0.631437 1.21029C1.05239 0.736765 1.56666 0.5 2.17425 0.5H9.33293C9.58872 0.5 9.803 0.597186 9.97579 0.791559C10.1484 0.985706 10.2347 1.22675 10.2347 1.51471C10.2347 1.80266 10.1484 2.04371 9.97579 2.23785C9.803 2.43223 9.58872 2.52941 9.33293 2.52941H2.17425C2.08164 2.52941 1.99684 2.57282 1.91987 2.65963C1.84269 2.74622 1.8041 2.8416 1.8041 2.94578V21.0542C1.8041 21.1584 1.84269 21.2538 1.91987 21.3404C1.99684 21.4272 2.08164 21.4706 2.17425 21.4706H9.33293C9.58872 21.4706 9.803 21.5678 9.97579 21.7621C10.1484 21.9563 10.2347 22.1973 10.2347 22.4853C10.2347 22.7732 10.1484 23.0143 9.97579 23.2084C9.803 23.4028 9.58872 23.5 9.33293 23.5H2.17425ZM16.9793 13.0147H7.63286C7.37688 13.0147 7.16249 12.9175 6.9897 12.7231C6.81711 12.529 6.73081 12.288 6.73081 12C6.73081 11.712 6.81711 11.471 6.9897 11.2769C7.16249 11.0825 7.37688 10.9853 7.63286 10.9853H16.9793L14.6665 8.38359C14.4999 8.19621 14.4147 7.96767 14.4109 7.69799C14.4071 7.4283 14.4923 7.18849 14.6665 6.97856C14.8407 6.76863 15.0519 6.66017 15.3003 6.65318C15.5485 6.64641 15.7659 6.74788 15.9525 6.95759L19.6741 11.1439C19.8914 11.3886 20 11.6739 20 12C20 12.3261 19.8914 12.6114 19.6741 12.8561L15.9525 17.0424C15.7737 17.2435 15.5613 17.3428 15.3153 17.3401C15.0694 17.3376 14.8531 17.2314 14.6665 17.0214C14.4923 16.8115 14.4083 16.5705 14.4145 16.2983C14.4205 16.0259 14.5107 15.7917 14.6851 15.5958L16.9793 13.0147Z" fill="#111111"/>
</svg>
