<svg width="22" height="22" viewBox="0 0 22 22" fill="none" xmlns="http://www.w3.org/2000/svg">
<path d="M20.6286 22C18.1898 22 15.7397 21.433 13.2783 20.2989C10.8171 19.1648 8.55574 17.5651 6.49421 15.4996C4.43289 13.434 2.8352 11.1726 1.70112 8.71524C0.567039 6.25814 0 3.81021 0 1.37144C0 0.97954 0.129412 0.65299 0.388235 0.391794C0.647059 0.130598 0.970588 0 1.35882 0H5.57959C5.90635 0 6.19462 0.106657 6.44438 0.319971C6.69415 0.533069 6.853 0.796421 6.92094 1.11003L7.66279 4.91765C7.71413 5.27094 7.70334 5.57452 7.63044 5.82838C7.55732 6.08225 7.42619 6.29545 7.23703 6.468L4.24826 9.3775C4.72925 10.2584 5.27881 11.0917 5.89697 11.8774C6.51491 12.6629 7.18397 13.4132 7.90415 14.1282C8.61419 14.8385 9.36909 15.498 10.1689 16.1069C10.9686 16.7158 11.8322 17.2824 12.7597 17.8067L15.6637 14.8775C15.8662 14.6668 16.1114 14.519 16.3994 14.4343C16.6871 14.3497 16.9862 14.329 17.2965 14.3721L20.89 15.104C21.2167 15.1902 21.4834 15.357 21.6901 15.6041C21.8967 15.8513 22 16.1317 22 16.4453V20.6412C22 21.0294 21.8694 21.3529 21.6082 21.6118C21.347 21.8706 21.0205 22 20.6286 22ZM3.32976 7.54082L5.63944 5.3308C5.68085 5.29758 5.70781 5.25196 5.72032 5.19394C5.73283 5.13592 5.73078 5.082 5.71418 5.03218L5.15156 2.14015C5.13495 2.07393 5.10594 2.02421 5.06453 1.991C5.02312 1.95778 4.9692 1.94118 4.90277 1.94118H2.13529C2.08547 1.94118 2.04395 1.95778 2.01074 1.991C1.97774 2.02421 1.96124 2.06574 1.96124 2.11556C2.02745 2.99987 2.17218 3.89821 2.39541 4.81056C2.61843 5.72313 2.92988 6.63322 3.32976 7.54082ZM14.5886 18.7249C15.4464 19.1248 16.341 19.4305 17.2726 19.6421C18.2044 19.8535 19.075 19.9791 19.8844 20.019C19.9343 20.019 19.9758 20.0024 20.009 19.9692C20.0422 19.936 20.0588 19.8945 20.0588 19.8446V17.1221C20.0588 17.0557 20.0422 17.0018 20.009 16.9604C19.9758 16.919 19.9261 16.89 19.8599 16.8734L17.1422 16.3208C17.0924 16.3042 17.0488 16.3021 17.0115 16.3146C16.9742 16.3271 16.9347 16.3541 16.8931 16.3955L14.5886 18.7249Z" fill="#111111"/>
</svg>
