<svg width="24" height="24" viewBox="0 0 24 24" fill="none" xmlns="http://www.w3.org/2000/svg">
<path d="M24 11.9978C24 13.6576 23.6849 15.2177 23.0548 16.6781C22.4249 18.1385 21.57 19.4088 20.49 20.4891C19.41 21.5693 18.14 22.4245 16.68 23.0548C15.22 23.6849 13.66 24 12 24C10.4486 24 8.98021 23.7219 7.59474 23.1657C6.20926 22.6093 4.97968 21.8412 3.906 20.8614C2.83232 19.8818 1.95789 18.7292 1.28274 17.4035C0.607368 16.078 0.199263 14.6396 0.058421 13.0882C0.0325263 12.7855 0.106947 12.5519 0.281684 12.3875C0.456632 12.2231 0.661579 12.1279 0.896526 12.102C1.13126 12.0761 1.35958 12.1303 1.58147 12.2646C1.80337 12.3992 1.92726 12.6348 1.95316 12.9717C2.19589 15.5839 3.278 17.7644 5.19947 19.5133C7.12095 21.2623 9.38779 22.1368 12 22.1368C14.8211 22.1368 17.2105 21.1579 19.1684 19.2C21.1263 17.2421 22.1053 14.8526 22.1053 12.0316C22.1053 9.21053 21.1263 6.82105 19.1684 4.86316C17.2105 2.90526 14.8211 1.92632 12 1.92632C10.0373 1.92632 8.26842 2.42474 6.69347 3.42158C5.11853 4.41821 3.90926 5.73116 3.06568 7.36042H5.78147C6.04989 7.36042 6.27484 7.45126 6.45632 7.63295C6.638 7.81463 6.72884 8.03969 6.72884 8.30811C6.72884 8.57674 6.638 8.80168 6.45632 8.98295C6.27484 9.16442 6.04989 9.25516 5.78147 9.25516H1.146C0.817579 9.25516 0.544526 9.14568 0.326842 8.92674C0.108947 8.708 0 8.43684 0 8.11326V3.47368C0 3.20526 0.090842 2.98032 0.272526 2.79884C0.45421 2.61716 0.679263 2.52632 0.947684 2.52632C1.21632 2.52632 1.44126 2.61716 1.62253 2.79884C1.804 2.98032 1.89474 3.20526 1.89474 3.47368V5.67221C2.93116 3.96526 4.33316 2.59316 6.10074 1.5559C7.86832 0.518632 9.83474 0 12 0C13.66 0 15.22 0.314947 16.68 0.944842C18.14 1.57474 19.41 2.42958 20.49 3.50937C21.57 4.58916 22.4249 5.85895 23.0548 7.31874C23.6849 8.77853 24 10.3382 24 11.9978ZM9.47368 16.9067C9.13642 16.9067 8.85368 16.7927 8.62547 16.5647C8.39747 16.3365 8.28347 16.0538 8.28347 15.7165V11.9271C8.28347 11.5898 8.40453 11.3072 8.64663 11.0792C8.88874 10.8509 9.18874 10.7368 9.54663 10.7368V9.40074C9.54663 8.726 9.78684 8.14842 10.2673 7.668C10.7477 7.18758 11.3253 6.94737 12 6.94737C12.6747 6.94737 13.2523 7.18758 13.7327 7.668C14.2132 8.14842 14.4534 8.726 14.4534 9.40074V10.7368C14.8113 10.7368 15.1113 10.8509 15.3534 11.0792C15.5955 11.3072 15.7165 11.5898 15.7165 11.9271V15.7165C15.7165 16.0538 15.6025 16.3365 15.3745 16.5647C15.1463 16.7927 14.8636 16.9067 14.5263 16.9067H9.47368ZM10.6639 10.7368H13.3361V9.40547C13.3361 9.02821 13.2069 8.71042 12.9486 8.45211C12.6903 8.19379 12.3741 8.06463 12 8.06463C11.6259 8.06463 11.3097 8.19379 11.0514 8.45211C10.7931 8.71042 10.6639 9.02821 10.6639 9.40547V10.7368Z" fill="#111111"/>
</svg>
