<svg width="24" height="24" viewBox="0 0 24 24" fill="none" xmlns="http://www.w3.org/2000/svg">
<path d="M12.0003 18C12.2689 18 12.4939 17.9092 12.6752 17.7275C12.8566 17.546 12.9474 17.3211 12.9474 17.0526V11.6842C12.9474 11.4158 12.8565 11.1907 12.6748 11.0091C12.4932 10.8276 12.2681 10.7368 11.9997 10.7368C11.7311 10.7368 11.5061 10.8276 11.3248 11.0091C11.1434 11.1907 11.0526 11.4158 11.0526 11.6842V17.0526C11.0526 17.3211 11.1435 17.546 11.3252 17.7275C11.5068 17.9092 11.7319 18 12.0003 18ZM12 8.57495C12.2891 8.57495 12.5314 8.47716 12.7269 8.28158C12.9225 8.086 13.0203 7.84368 13.0203 7.55463C13.0203 7.26558 12.9225 7.02326 12.7269 6.82768C12.5314 6.63232 12.2891 6.53463 12 6.53463C11.7109 6.53463 11.4686 6.63232 11.2731 6.82768C11.0775 7.02326 10.9797 7.26558 10.9797 7.55463C10.9797 7.84368 11.0775 8.086 11.2731 8.28158C11.4686 8.47716 11.7109 8.57495 12 8.57495ZM12.0022 24C10.3424 24 8.78232 23.6851 7.32189 23.0552C5.86147 22.4253 4.59116 21.5704 3.51095 20.4906C2.43074 19.4108 1.57547 18.1411 0.945158 16.6813C0.315052 15.2215 0 13.6618 0 12.0022C0 10.3424 0.314947 8.78232 0.944842 7.32189C1.57474 5.86147 2.42958 4.59116 3.50937 3.51095C4.58916 2.43074 5.85895 1.57547 7.31874 0.945158C8.77853 0.315052 10.3382 0 11.9978 0C13.6576 0 15.2177 0.314947 16.6781 0.944842C18.1385 1.57474 19.4088 2.42958 20.4891 3.50937C21.5693 4.58916 22.4245 5.85895 23.0548 7.31874C23.6849 8.77853 24 10.3382 24 11.9978C24 13.6576 23.6851 15.2177 23.0552 16.6781C22.4253 18.1385 21.5704 19.4088 20.4906 20.4891C19.4108 21.5693 18.1411 22.4245 16.6813 23.0548C15.2215 23.6849 13.6618 24 12.0022 24ZM12 22.1053C14.8211 22.1053 17.2105 21.1263 19.1684 19.1684C21.1263 17.2105 22.1053 14.8211 22.1053 12C22.1053 9.17895 21.1263 6.78947 19.1684 4.83158C17.2105 2.87368 14.8211 1.89474 12 1.89474C9.17895 1.89474 6.78947 2.87368 4.83158 4.83158C2.87368 6.78947 1.89474 9.17895 1.89474 12C1.89474 14.8211 2.87368 17.2105 4.83158 19.1684C6.78947 21.1263 9.17895 22.1053 12 22.1053Z" fill="#111111"/>
</svg>
