<svg width="20" height="24" viewBox="0 0 20 24" fill="none" xmlns="http://www.w3.org/2000/svg">
<path d="M13.375 18.1111H19L17.4194 16.3939C17.207 16.1633 17.0386 15.8895 16.9237 15.5881C16.8089 15.2868 16.7498 14.9637 16.75 14.6376V10.7778C16.7505 9.26084 16.318 7.78106 15.512 6.54232C14.7061 5.30359 13.5664 4.36687 12.25 3.86122V3.44444C12.25 2.79614 12.0129 2.17438 11.591 1.71596C11.169 1.25754 10.5967 1 10 1C9.40326 1 8.83097 1.25754 8.40901 1.71596C7.98705 2.17438 7.75 2.79614 7.75 3.44444V3.86122C5.12875 4.86833 3.25 7.58533 3.25 10.7778V14.6388C3.25 15.2963 3.00925 15.9282 2.58063 16.3939L1 18.1111H6.625M13.375 18.1111V19.3333C13.375 20.3058 13.0194 21.2384 12.3865 21.9261C11.7536 22.6137 10.8951 23 10 23C9.10489 23 8.24645 22.6137 7.61351 21.9261C6.98058 21.2384 6.625 20.3058 6.625 19.3333V18.1111M13.375 18.1111H6.625" stroke="#111111" stroke-width="2" stroke-linecap="round" stroke-linejoin="round"/>
</svg>
